<svg width="40" height="40" viewBox="0 0 40 40" fill="none" xmlns="http://www.w3.org/2000/svg">
<circle cx="20" cy="20" r="20" fill="white"/>
<path fill-rule="evenodd" clip-rule="evenodd" d="M10 20.4167C10 26.1696 14.6637 30.8333 20.4167 30.8333C26.1696 30.8333 30.8333 26.1696 30.8333 20.4167C30.8333 14.6637 26.1696 10 20.4167 10C14.6637 10 10 14.6637 10 20.4167ZM12.0833 20.4167C12.0833 15.8143 15.8143 12.0833 20.4167 12.0833C25.019 12.0833 28.75 15.8143 28.75 20.4167C28.75 25.019 25.019 28.75 20.4167 28.75C15.8143 28.75 12.0833 25.019 12.0833 20.4167ZM17.2917 21.4583C17.2917 20.883 16.8253 20.4167 16.25 20.4167C15.6747 20.4167 15.2083 20.883 15.2083 21.4583C15.2083 24.3348 17.5402 26.6667 20.4167 26.6667C23.2931 26.6667 25.625 24.3348 25.625 21.4583C25.625 20.883 25.1586 20.4167 24.5833 20.4167C24.008 20.4167 23.5417 20.883 23.5417 21.4583C23.5417 23.1842 22.1426 24.5833 20.4167 24.5833C18.6908 24.5833 17.2917 23.1842 17.2917 21.4583ZM16.25 18.3333C16.8253 18.3333 17.2917 17.867 17.2917 17.2917C17.2917 17.867 17.758 18.3333 18.3333 18.3333C18.9086 18.3333 19.375 17.867 19.375 17.2917C19.375 16.1411 18.4423 15.2083 17.2917 15.2083C16.1411 15.2083 15.2083 16.1411 15.2083 17.2917C15.2083 17.867 15.6747 18.3333 16.25 18.3333ZM23.5417 17.2917C23.5417 17.867 23.0753 18.3333 22.5 18.3333C21.9247 18.3333 21.4583 17.867 21.4583 17.2917C21.4583 16.1411 22.3911 15.2083 23.5417 15.2083C24.6923 15.2083 25.625 16.1411 25.625 17.2917C25.625 17.867 25.1586 18.3333 24.5833 18.3333C24.008 18.3333 23.5417 17.867 23.5417 17.2917Z" fill="#FC6E1D"/>
</svg>
